<?xml version="1.0" encoding="utf-8"?>
<!-- Generator: Adobe Illustrator 25.4.1, SVG Export Plug-In . SVG Version: 6.00 Build 0)  -->
<svg version="1.1" id="图层_1" xmlns="http://www.w3.org/2000/svg" xmlns:xlink="http://www.w3.org/1999/xlink" x="0px" y="0px"
	 viewBox="0 0 317 117" style="enable-background:new 0 0 317 117;" xml:space="preserve">
<style type="text/css">
	.st0{fill:#231815;}
	.st1{fill:#DC1F47;}
	.st2{fill:#FFFFFF;}
</style>
<g id="EN">
	<polygon class="st0" points="79.4,81.5 74.3,81.5 74.3,106.8 79.4,106.8 79.4,96.7 89.5,96.7 89.5,91.6 79.4,91.6 79.4,86.6 
		89.5,86.6 89.5,81.5 79.4,81.5 	"/>
	<polygon class="st0" points="276.6,81.5 271.6,81.5 271.6,106.8 276.6,106.8 286.8,106.8 286.8,101.7 276.6,101.7 	"/>
	<rect x="276.6" y="81.5" class="st0" width="10.1" height="5.1"/>
	<rect x="276.6" y="91.6" class="st0" width="10.1" height="5.1"/>
	<polygon class="st0" points="8.5,106.8 14.4,106.8 23.7,91.3 23.7,106.8 28.8,106.8 28.8,81.5 23.7,81.5 	"/>
	<polygon class="st0" points="216,106.8 221.8,106.8 231.1,91.3 231.1,106.8 236.2,106.8 236.2,81.5 231.1,81.5 	"/>
	<path class="st0" d="M49.1,89.1c0-4.2-3.3-7.6-7.5-7.6c0,0,0,0-0.1,0h-7.7v25.3h5.1v-5.1l3.9,5.1h6.3l-7.5-10.1
		C45.7,96.6,49.1,93.2,49.1,89.1z M41.5,91.6h-2.6v-5.1h2.5c1.4,0.1,2.4,1.3,2.3,2.7C43.7,90.5,42.7,91.5,41.5,91.6L41.5,91.6z"/>
	<path class="st0" d="M140.1,89.1c0-4.2-3.3-7.6-7.5-7.6c0,0,0,0-0.1,0h-7.6v25.3h5.1v-5.1l3.8,5.1h6.3l-7.5-10.1
		C136.7,96.6,140.1,93.3,140.1,89.1z M132.5,91.6H130v-5.1h2.5c1.4,0.1,2.4,1.3,2.3,2.7C134.7,90.5,133.7,91.5,132.5,91.6
		L132.5,91.6z"/>
	<polygon class="st0" points="54.1,86.6 59.2,86.6 59.2,106.8 64.2,106.8 64.2,86.6 69.3,86.6 69.3,81.5 54.1,81.5 	"/>
	<polygon class="st0" points="157.8,91.6 150.2,81.5 145.2,81.5 145.2,106.8 150.2,106.8 150.2,89.9 153.7,94.7 157.8,100.1 
		161.8,94.7 165.4,89.9 165.4,106.8 170.4,106.8 170.4,81.5 165.4,81.5 	"/>
	<polygon class="st0" points="253.9,91.6 246.3,81.5 241.2,81.5 241.2,106.8 246.3,106.8 246.3,89.9 249.9,94.7 253.9,100.1 
		257.9,94.7 261.5,89.9 261.5,106.8 266.5,106.8 266.5,81.5 261.5,81.5 	"/>
	<path class="st0" d="M215.7,91.6h-14.9v5.1h9.7c-1.4,4-5.7,6.1-9.6,4.7c-4-1.4-6.1-5.7-4.7-9.6s5.7-6.1,9.6-4.7
		c0.5,0.2,1,0.4,1.5,0.7c0.5,0.3,1,0.7,1.4,1.1l2.2-2.2l1.3-1.3c-2.4-2.4-5.6-3.7-8.9-3.7c-0.6,0-1.2,0-1.8,0.1
		c-5.6,0.8-9.9,5.1-10.7,10.7c-0.1,0.6-0.1,1.2-0.1,1.8c-0.3,7,5.2,12.9,12.2,13.1c7,0.3,12.9-5.2,13.1-12.2c0-0.3,0-0.6,0-1
		C216,93.3,215.9,92.5,215.7,91.6z"/>
	<path class="st0" d="M299.4,91.6c-1.4,0-2.5-1.1-2.5-2.5s1.1-2.5,2.5-2.5s2.5,1.1,2.5,2.5l0,0h5.1c0-4.2-3.4-7.6-7.6-7.6
		c-4.2,0-7.6,3.4-7.6,7.6c0,4.2,3.4,7.6,7.6,7.6c0,0,0,0,0,0c1.4,0,2.5,1.1,2.5,2.5s-1.1,2.5-2.5,2.5c-1.4,0-2.5-1.1-2.5-2.5v0h-5.1
		c0,4.2,3.4,7.6,7.6,7.6s7.6-3.4,7.6-7.6c0-1.9-0.7-3.7-1.9-5.1C303.6,92.5,301.6,91.6,299.4,91.6z"/>
	<path class="st0" d="M94.5,94.1c0,6,4.2,11.2,10.1,12.4v-5.3c-3.9-1.3-6.1-5.6-4.7-9.5c0.8-2.2,2.5-4,4.7-4.7v-5.2
		C98.7,83,94.5,88.1,94.5,94.1z"/>
	<path class="st0" d="M109.8,81.8V87c3.9,1.4,6,5.7,4.7,9.6c-0.8,2.2-2.5,3.9-4.7,4.7v5.4c6.9-1.3,11.4-7.9,10.1-14.8
		C118.8,86.8,114.9,82.8,109.8,81.8z"/>
</g>
<g id="CN">
	<rect x="303.5" y="17.5" class="st0" width="5.4" height="5.4"/>
	<polygon class="st0" points="298.1,22.9 298.1,17.5 292.6,17.5 292.6,12 287.2,12 287.2,22.9 	"/>
	<rect x="292.6" y="28.4" class="st0" width="5.4" height="10.9"/>
	<polygon class="st0" points="276.3,33.8 281.7,33.8 281.7,22.9 281.7,22.9 281.7,17.5 281.7,17.5 276.3,17.5 265.4,17.5 
		265.4,22.9 276.3,22.9 	"/>
	<polygon class="st0" points="281.3,41.3 273.6,49.1 265.8,41.3 262,45.2 269.7,52.9 262,60.6 265.8,64.5 273.6,56.8 281.3,64.5 
		285.1,60.6 277.4,52.9 285.1,45.2 	"/>
	<polygon class="st0" points="298.1,61.1 298.1,51.3 307.7,41.7 303.9,37.8 288.5,53.2 292.3,57.1 292.6,56.8 292.6,66.5 
		292.6,66.5 309,66.5 309,61.1 	"/>
	<rect x="249" y="17.5" class="st0" width="5.4" height="5.4"/>
	<polygon class="st0" points="255.9,33.5 254.5,28.4 238.1,28.4 238.1,33.8 247.9,33.8 236.7,45.1 238.1,50.2 254.5,50.2 
		254.5,44.7 244.7,44.7 	"/>
	<polygon class="st0" points="243.6,61.1 238.1,61.1 238.1,66.5 249,66.5 249,55.6 243.6,55.6 	"/>
	<rect x="238.1" y="12" class="st0" width="5.4" height="10.9"/>
	<polygon class="st0" points="221.8,12 216.3,12 216.3,66.5 221.8,66.5 221.8,33.8 227.2,33.8 227.2,39.3 232.7,39.3 232.7,28.4 
		221.8,28.4 221.8,22.9 221.8,22.9 221.8,22.9 232.7,22.9 232.7,17.5 221.8,17.5 	"/>
	<rect x="227.2" y="44.7" class="st0" width="5.4" height="21.8"/>
	<rect x="205.4" y="12" class="st0" width="5.4" height="10.9"/>
	<rect x="205.4" y="55.6" class="st0" width="5.4" height="10.9"/>
	<rect x="205.4" y="28.4" class="st0" width="5.4" height="21.8"/>
	<rect x="112.7" y="28.4" class="st0" width="10.9" height="5.4"/>
	<rect x="96.3" y="44.7" transform="matrix(0.7071 -0.7071 0.7071 0.7071 1.0494 97.4501)" class="st0" width="43.6" height="5.4"/>
	<polygon class="st0" points="134.5,17.5 134.5,12 129.1,12 129.1,17.5 112.7,17.5 112.7,22.9 140,22.9 140,17.5 	"/>
	<polygon class="st0" points="101.8,22.9 107.3,22.9 107.3,22.9 107.3,17.5 107.3,12 101.8,12 101.8,17.5 96.3,17.5 96.3,22.9 
		101.8,22.9 	"/>
	<polygon class="st0" points="101.8,33.8 107.3,33.8 107.3,28.4 101.8,28.4 101.8,28.3 96.3,28.3 96.3,28.4 96.3,33.8 96.3,39.2 
		101.8,39.2 	"/>
	<polygon class="st0" points="134.5,61.1 118.2,61.1 118.2,66.5 140,66.5 140,44.7 134.5,44.7 	"/>
	<rect x="150.9" y="28.4" class="st0" width="27.3" height="5.4"/>
	<rect x="150.9" y="61.1" class="st0" width="27.3" height="5.4"/>
	<polygon class="st0" points="189,17.5 189,12 183.6,12 183.6,22.9 194.5,22.9 194.5,17.5 	"/>
	<rect x="150.9" y="17.5" class="st0" width="27.3" height="5.4"/>
	<polygon class="st0" points="189,55.6 183.6,55.6 183.6,66.5 194.5,66.5 194.5,61.1 189,61.1 	"/>
	<rect x="183.6" y="28.4" class="st0" width="5.4" height="21.8"/>
	<rect x="161.8" y="39.3" class="st0" width="5.4" height="16.3"/>
</g>
<path id="LOGO_x5F_BG" class="st1" d="M68.8,72.1H29.6c-6.8,0-12.3-5.5-12.3-12.3V20.5c0-6.8,5.5-12.3,12.3-12.3h39.2
	c6.8,0,12.3,5.5,12.3,12.3v39.2C81.1,66.6,75.6,72.1,68.8,72.1z"/>
<g id="LOGO">
	<path class="st2" d="M40.2,33.9h-3v18.2h18.2V33.9C55.4,33.9,40.2,33.9,40.2,33.9z M52.4,49.1H40.2V37h12.2V49.1z"/>
	<polygon class="st2" points="62.6,41 65.6,41.3 67.2,26.2 52.1,24.6 51.8,27.6 63.9,28.9 	"/>
	<polygon class="st2" points="64.7,50.4 64.7,50.4 64.7,50.4 65.3,44.3 62.3,44 62,47 59,46.7 58.6,49.7 	"/>
	<polygon class="st2" points="49.1,24.3 48.8,27.3 45.8,27 45.4,30 42.4,29.7 43.1,23.6 	"/>
	<polygon class="st2" points="43.2,59 39,54.7 36.8,56.8 41.1,61.1 43.2,63.3 49.7,56.8 47.5,54.7 	"/>
	<polygon class="st2" points="32.5,44 30.4,41.8 26.1,46.1 30.4,50.4 32.5,48.3 30.4,46.1 	"/>
	<polygon class="st2" points="67.4,39 66.6,41.9 69.6,42.7 68.8,45.6 71.7,46.4 73.3,40.6 	"/>
	<polygon class="st2" points="70.9,49.4 67,64 52.3,60.1 53.1,57.2 64.9,60.3 68,48.6 	"/>
	<polygon class="st2" points="50.4,21.9 47.4,22.7 46.6,19.8 43.7,20.5 42.9,17.6 48.8,16 	"/>
	<polygon class="st2" points="29,24.5 32.2,36.2 29.3,37 25.3,22.3 40,18.4 40.8,21.3 	"/>
</g>
</svg>
